<svg xmlns="http://www.w3.org/2000/svg" width="483" height="145" viewBox="0 0 483 145" fill="none"><path fill-rule="evenodd" clip-rule="evenodd" d="M143.465 98.9444L139.81 93.1158C137.785 95.0352 135.306 96.132 132.889 96.132C131.779 96.132 131.193 95.9964 128.776 95.3793C126.362 94.6915 124.663 94.4859 122.771 94.4859C114.217 94.4859 108.669 99.1499 108.669 106.351C108.669 111.562 111.02 114.785 115.852 116.088C113.893 116.569 111.738 117.598 110.759 118.765C110.04 119.587 109.715 120.682 109.715 121.985C109.715 123.085 109.976 124.044 110.367 124.867C110.823 125.621 111.476 126.238 112.261 126.58C113.825 127.197 116.373 127.609 120.289 127.678C122.314 127.678 123.555 127.747 124.012 127.747C126.428 127.885 127.667 128.294 128.582 128.775C129.495 129.325 130.148 130.559 130.148 131.929C130.148 133.302 129.299 134.673 128.059 135.496C126.885 136.319 124.99 136.663 122.51 136.663C118.461 136.663 116.242 135.153 116.242 132.341C116.242 131.106 116.373 130.831 116.634 130.078H108.539C108.213 130.763 107.757 131.723 107.757 133.644C107.757 136.045 108.669 138.102 110.497 139.885C113.502 142.835 118.398 143.656 123.163 143.656C128.384 143.656 133.413 142.423 136.35 139.129C138.176 137.072 139.025 134.809 139.025 131.861C139.025 128.707 138.113 126.306 136.154 124.387C133.802 122.122 131.128 121.299 126.036 121.231L121.334 121.163C120.42 121.163 119.9 120.822 119.9 120.341C119.9 119.38 121.138 118.556 123.358 117.461C124.012 117.528 124.272 117.528 124.663 117.528C131.779 117.528 137.002 113.14 137.002 107.106C137.002 104.773 136.35 102.991 135.042 101.346C136.154 101.481 136.48 101.551 137.329 101.551C139.743 101.551 141.571 100.796 143.465 98.9444ZM148.848 64.9084C148.848 60.9647 146.412 57.3111 142.268 54.3096C142.642 55.5148 142.852 56.7398 142.852 57.9891C142.852 69.2819 127.052 78.9441 104.653 82.9448C107.186 83.2298 109.814 83.3857 112.517 83.3857C132.583 83.3857 148.848 75.1126 148.848 64.9084ZM135.936 58.7659C135.936 69.6035 111.646 78.3879 81.6814 78.3879C51.7183 78.3879 27.4295 69.6035 27.4295 58.7659C27.4295 55.3524 29.8397 52.144 34.0775 49.3498C33.4224 50.5481 33.075 51.7878 33.075 53.0582C33.075 63.0693 54.4391 71.1849 80.7948 71.1849C107.151 71.1849 128.517 63.0693 128.517 53.0582C128.517 51.1651 127.747 49.3372 126.328 47.6195C132.38 50.7864 135.936 54.6256 135.936 58.7659ZM33.4238 41.4187C22.4795 44.0873 15.0453 49.3135 15.0453 55.3235C15.0453 59.0439 17.8968 62.46 22.6583 65.1589C21.2282 62.8751 20.4497 60.4724 20.4497 57.9891C20.4497 51.7381 25.3011 45.989 33.4238 41.4187ZM140.447 23.7986C139.44 22.5895 138.061 22.5933 136.973 23.5766C135.923 24.9661 135.893 25.955 136.639 26.7228C137.434 27.5437 139.083 28.251 140.27 27.3105C141.458 26.3661 141.454 25.0072 140.447 23.7986ZM126.661 28.3041C130.057 23.5774 136.555 31.9356 129.19 33.0989C126.243 33.5648 121.266 36.7819 119.131 41.86C116.115 49.3748 117.42 54.937 112.236 58.2823C101.181 65.4106 67.1224 68.1004 52.457 58.9559C40.961 51.7882 44.9055 40.4242 12.0225 15.3799C7.7223 12.1067 12.8152 8.63157 16.0362 10.8558C19.2568 13.0826 16.3088 13.6738 22.8049 20.1614C35.9261 33.26 35.7941 21.484 37.8663 25.9382C42.2236 35.305 51.8356 44.7384 51.8356 44.7384C61.4618 50.9916 69.1491 52.3582 83.3486 42.7702C92.3535 36.6899 88.67 52.4407 110.754 41.0892C118.808 36.9481 118.473 39.6936 126.661 28.3041H126.661ZM30.841 16.288C30.2845 15.5064 28.6303 15.1467 27.524 16.2578C26.4193 17.3688 26.9627 18.4674 27.6014 19.1276C28.5179 20.0733 30.0713 19.9955 30.995 19.4817C31.9232 18.9692 31.7281 17.5346 30.841 16.288ZM8.01139 7.5939C8.73265 6.80368 9.64351 5.30871 8.07889 2.44713C6.93699 0.352375 3.16083 -0.503451 1.82809 0.295366C0.499659 1.09687 -1.12555 4.18993 1.09983 5.55101C3.96736 7.30717 5.84698 9.96112 8.01139 7.5939ZM144.156 3.70754C143.146 2.24334 141.014 2.50844 138.905 4.03663C136.793 5.56306 137.193 8.4653 137.891 9.14105C139.115 10.3294 142.378 9.52714 143.138 8.676C145.096 6.49017 145.165 5.17144 144.156 3.70754ZM132.008 13.0024C135.03 11.5804 139.783 16.2025 132.905 19.6721C123.075 24.6337 122.033 30.7892 115.823 34.7031C105.379 41.2861 108.575 34.9691 91.775 32.5782C85.3052 31.6571 83.2239 38.8602 78.1731 36.7784C66.5291 31.9788 58.3965 32.8977 50.8546 39.0195C48.1247 37.8178 45.268 33.1784 44.1486 31.3182C47.2061 28.3295 45.9716 23.3348 44.2447 20.5958C42.5204 17.8568 40.4308 18.6341 38.1376 16.114C35.8421 13.5974 39.0025 7.02864 41.9419 12.0748C52.954 30.983 60.184 23.118 69.1794 21.9901C77.8122 20.9085 85.4433 25.6009 87.7828 12.3093C88.1675 10.1368 90.2882 9.61691 90.5045 13.2096C90.72 16.8049 92.0718 25.559 96.8185 26.6887C101.564 27.817 105.332 25.5794 106.443 24.3374C107.555 23.0955 108.137 23.2761 108.624 26.3579C109.114 29.4423 110.317 33.7017 116.981 28.957C130.611 19.2516 126.711 15.4965 132.008 13.0024ZM91.4976 4.12042C91.5417 2.56713 90.8347 1.59345 89.2995 1.64824C87.7647 1.70394 87.2143 2.47475 87.2641 3.97402C87.647 6.81189 88.1251 6.74406 89.1433 7.00616C90.1615 7.26873 91.4534 5.67232 91.4976 4.12042ZM36.8559 6.78772C37.5244 5.94655 37.5884 4.83936 36.7014 3.59145C36.1458 2.81067 33.5462 2.27526 32.4428 3.3859C31.336 4.49777 32.3428 6.24402 33.2039 6.50873C34.7984 6.99887 35.5067 8.48172 36.8559 6.78772ZM127.994 106.419C127.994 109.642 126.1 111.424 122.64 111.424C119.572 111.424 117.482 109.986 117.482 106.419C117.482 103.127 119.376 101.207 122.706 101.207C126.036 101.207 127.994 103.127 127.994 106.419ZM102.925 126.101C105.8 122.671 107.103 118.556 107.103 112.522C107.103 106.83 105.928 102.991 103.253 99.6974C100.379 96.1319 96.6596 94.4185 91.8922 94.4185C82.8842 94.4185 76.8779 101.754 76.8779 112.798C76.8779 123.837 82.818 130.97 91.8922 130.97C97.0495 130.97 100.379 129.119 102.925 126.101ZM97.5726 112.454C97.5726 120.753 95.9418 124.317 92.1556 124.317C90.4565 124.317 88.4998 123.359 87.7153 121.439C86.9978 119.653 86.6037 116.635 86.6037 112.591C86.6037 109.093 86.9313 106.625 87.5188 104.773C88.2362 102.579 89.9333 101.207 92.0228 101.207C93.5892 101.207 94.96 101.893 95.8094 103.059C96.9846 104.635 97.5726 107.721 97.5726 112.454ZM14.3149 136.523L18.5553 141.461C22.6694 139.815 27.8267 136.114 29.1318 130.285C29.5887 128.364 29.7834 127.129 29.7834 120.955V82.7997H20.5158V121.985C20.5158 127.129 20.3202 129.049 19.6011 130.762C18.753 132.684 16.6618 135.014 14.3149 136.523ZM35.7309 82.6913H34.7789V130.215H43.918V109.161H55.4732V101.346H43.918V90.4393H58.3442L58.9041 86.29C50.2354 85.6285 42.3572 84.2363 35.7309 82.6913ZM66.1137 94.2807C66.8978 95.7225 67.3526 97.2987 67.4845 99.288C68.7259 97.5042 70.815 95.6525 72.4459 94.8278C73.1659 94.4858 74.3393 94.2807 75.319 94.2807C76.624 94.2807 77.2112 94.4185 78.5819 95.0351L76.167 103.127C75.319 102.648 74.6011 102.442 73.6219 102.442C71.6631 102.442 69.9002 103.402 68.2677 105.39V130.215H59.5207V106.76C59.5207 102.028 58.9979 98.4628 58.2801 96.4761L66.1137 94.2807Z" fill="#40BE46"></path><path fill-rule="evenodd" clip-rule="evenodd" d="M482.892 90.137C482.892 93.7199 482.075 96.8872 480.439 99.638C478.803 102.391 476.506 104.47 473.545 105.869C472.922 106.183 472.287 106.44 471.638 106.648C470.989 106.858 470.262 107.037 469.456 107.193C468.653 107.351 467.703 107.465 466.615 107.544C465.524 107.624 464.227 107.662 462.72 107.662H456.722V127.6H445.818V73.4703H460.071C462.358 73.4703 464.289 73.5222 465.873 73.6265C467.456 73.7302 468.808 73.8991 469.922 74.1325C471.039 74.3665 471.986 74.6518 472.766 74.9895C473.546 75.3272 474.325 75.7034 475.102 76.1189C477.648 77.5201 479.582 79.4292 480.906 81.8454C482.23 84.2575 482.892 87.0216 482.892 90.137ZM219.841 114.983C219.841 117.059 219.426 118.943 218.595 120.628C217.765 122.316 216.609 123.77 215.13 124.989C213.65 126.21 211.859 127.157 209.756 127.834C207.653 128.508 205.329 128.847 202.786 128.847C197.905 128.847 192.529 127.316 186.664 124.25L190.402 116.617C191.181 117.085 192.101 117.591 193.165 118.136C194.231 118.681 195.348 119.175 196.514 119.616C197.685 120.057 198.878 120.423 200.099 120.707C201.316 120.992 202.5 121.135 203.642 121.135C205.148 121.135 206.407 120.707 207.419 119.849C208.432 118.993 208.937 117.916 208.937 116.617C208.937 115.268 208.445 114.216 207.458 113.463C206.472 112.711 204.914 112.126 202.786 111.711L198.112 110.855C196.763 110.595 195.387 110.076 193.984 109.299C192.583 108.518 191.516 107.688 190.79 106.804C190.063 105.922 189.507 104.832 189.115 103.534C188.728 102.235 188.532 100.938 188.532 99.64C188.532 97.7182 188.894 95.9534 189.622 94.3413C190.348 92.7343 191.389 91.3586 192.739 90.2164C194.089 89.0736 195.711 88.1907 197.606 87.5683C199.501 86.9452 201.617 86.6336 203.954 86.6336C207.173 86.6336 209.898 87.0358 212.131 87.8403C214.364 88.6454 216.389 89.4891 218.206 90.372L214.779 97.3811C212.806 96.343 211.053 95.6026 209.522 95.1617C207.988 94.7207 206.472 94.4995 204.966 94.4995C203.46 94.4995 202.24 94.8499 201.306 95.5512C200.371 96.252 199.904 97.2 199.904 98.3936C199.904 99.4315 200.28 100.25 201.033 100.847C201.786 101.444 203.071 101.976 204.888 102.443L209.716 103.689C210.963 104.001 212.002 104.325 212.832 104.663C213.663 105.001 214.377 105.364 214.974 105.754C215.57 106.143 216.077 106.532 216.492 106.921C216.908 107.311 217.297 107.739 217.661 108.207C219.115 110.023 219.841 112.282 219.841 114.983ZM262.76 127.6H253.181L249.598 113.893C249.182 112.281 248.767 110.609 248.352 108.868C247.937 107.131 247.6 105.585 247.34 104.236L246.717 100.264C246.665 100.677 246.613 101.068 246.561 101.432L246.406 102.445C246.353 102.754 246.276 103.143 246.172 103.613C246.068 104.077 245.938 104.676 245.782 105.405C245.574 106.284 245.328 107.324 245.042 108.52C244.756 109.711 244.458 110.97 244.147 112.297C243.835 113.62 243.51 114.906 243.172 116.152C242.836 117.398 242.562 118.488 242.355 119.423L240.331 127.6H230.595L219.69 88.4262L230.048 87.2581L233.322 102.598C233.527 103.638 233.763 104.794 234.022 106.066C234.28 107.336 234.515 108.57 234.723 109.766C234.931 110.96 235.112 112.037 235.269 112.997C235.422 113.958 235.527 114.62 235.58 114.981C235.684 114.205 235.84 113.257 236.048 112.141C236.255 111.022 236.488 109.831 236.748 108.556C237.008 107.283 237.28 106.001 237.566 104.703C237.851 103.403 238.15 102.211 238.462 101.118L242.2 87.7224H252.013L255.206 100.885C255.569 102.545 255.92 104.158 256.257 105.713C256.592 107.273 256.893 108.675 257.153 109.921C257.413 111.165 257.634 112.242 257.815 113.153C257.996 114.059 258.113 114.669 258.166 114.981C258.217 114.568 258.307 113.893 258.438 112.958C258.568 112.025 258.737 110.944 258.945 109.726C259.152 108.507 259.372 107.221 259.606 105.871C259.839 104.521 260.086 103.221 260.346 101.975L263.383 87.7224H274.131L262.76 127.6ZM303.341 129.625C302.147 129.106 301.044 128.431 300.034 127.6C299.019 126.769 298.253 125.835 297.734 124.797C297.318 125.212 296.916 125.601 296.526 125.965C296.137 126.328 295.735 126.64 295.32 126.899C293.295 128.353 290.621 129.08 287.298 129.08C282.833 129.08 279.432 128.003 277.096 125.847C274.759 123.693 273.591 120.614 273.591 116.62C273.591 111.894 275.186 108.429 278.38 106.222C281.571 104.015 286.363 102.91 292.75 102.91H293.918C294.281 102.91 294.67 102.938 295.086 102.988V101.354C295.086 99.1192 294.787 97.5768 294.19 96.7198C293.593 95.8615 292.334 95.4332 290.413 95.4332C288.752 95.4332 286.96 95.8222 285.039 96.6014C283.118 97.38 281.068 98.4963 278.886 99.9528L274.448 92.4734C275.486 91.7985 276.472 91.2274 277.407 90.76C278.341 90.2926 279.51 89.7739 280.912 89.2023C282.884 88.3738 284.741 87.7747 286.479 87.4106C288.219 87.048 289.998 86.8664 291.815 86.8664C295.19 86.8664 297.981 87.4635 300.187 88.6571C302.396 89.8512 303.886 91.5646 304.665 93.7971C304.823 94.2126 304.937 94.6154 305.015 95.005C305.093 95.3966 305.172 95.8507 305.249 96.368C305.327 96.8872 305.367 97.5122 305.367 98.2369V100.962L305.133 114.358C305.133 115.451 305.159 116.398 305.21 117.203C305.264 118.008 305.418 118.748 305.678 119.423C305.938 120.098 306.316 120.734 306.807 121.331C307.3 121.926 307.988 122.561 308.872 123.239L303.341 129.625ZM294.463 110.155C290.828 110.155 288.297 110.57 286.869 111.398C285.442 112.231 284.728 113.841 284.728 116.23C284.728 117.787 285.156 119.046 286.013 120.006C286.869 120.968 287.973 121.447 289.323 121.447C290.309 121.447 291.27 121.214 292.204 120.747C293.139 120.279 293.996 119.604 294.775 118.722L294.931 110.155H294.463ZM352.804 127.6V101.277C352.804 100.08 352.765 99.1192 352.687 98.3946C352.61 97.6679 352.454 97.0947 352.221 96.6813C351.987 96.2637 351.648 95.9809 351.207 95.8248C350.767 95.6661 350.208 95.5888 349.533 95.5888C348.546 95.5888 347.43 95.8874 346.184 96.4864C344.938 97.0835 343.744 97.8992 342.602 98.9372V127.6H332.709V101.664C332.709 99.1717 332.476 97.5229 332.01 96.7198C331.542 95.9153 330.582 95.5105 329.129 95.5105C328.139 95.5105 327.036 95.7602 325.816 96.2509C324.596 96.7442 323.417 97.5122 322.274 98.5477V127.6H312.07V99.7946C312.07 96.8872 311.969 94.7059 311.759 93.252C311.553 91.7985 311.162 90.5785 310.59 89.5919L320.014 87.0216C320.377 87.5927 320.65 88.1531 320.832 88.6962C321.016 89.2414 321.21 90.0347 321.416 91.0718C324.222 88.3738 327.467 87.0216 331.153 87.0216C334.423 87.0216 337.124 88.1119 339.253 90.2927C339.772 90.8123 340.291 91.4614 340.81 92.24C342.627 90.373 344.418 89.0334 346.184 88.2294C347.95 87.4243 349.922 87.0216 352.104 87.0216C353.661 87.0216 355.141 87.2428 356.542 87.6837C357.944 88.1246 359.087 88.738 359.969 89.5166C360.54 89.9814 361.007 90.5007 361.371 91.0718C361.735 91.6429 362.033 92.3071 362.268 93.0577C362.501 93.8099 362.669 94.6958 362.772 95.7053C362.876 96.7198 362.929 97.8992 362.929 99.2515V127.6H352.804ZM400.864 106.571C400.864 108.701 400.774 110.596 400.595 112.257C400.413 113.918 400.1 115.437 399.657 116.812C399.216 118.189 398.647 119.448 397.946 120.588C397.243 121.733 396.374 122.848 395.335 123.939C393.985 125.393 392.417 126.51 390.625 127.289C388.833 128.069 386.846 128.456 384.666 128.456C383.108 128.456 381.615 128.275 380.187 127.911C378.76 127.547 377.474 127.029 376.333 126.354C376.437 126.821 376.488 127.34 376.488 127.911V142.085L366.441 144.735V98.628C366.441 97.3302 366.429 96.2245 366.403 95.3177C366.376 94.4069 366.35 93.6044 366.324 92.9031C366.299 92.2023 366.247 91.5147 366.168 90.8394C366.091 90.165 365.974 89.4098 365.818 88.5809L375.086 86.9432C375.294 87.671 375.45 88.3189 375.553 88.8925C375.657 89.4636 375.736 90.0608 375.787 90.6838C376.67 89.5919 378.02 88.6957 379.837 87.9965C381.654 87.2941 383.575 86.9432 385.6 86.9432C387.004 86.9432 388.391 87.1639 389.767 87.6054C391.143 88.0473 392.376 88.6337 393.468 89.3579C394.556 90.0852 395.545 90.9563 396.428 91.9684C397.308 92.9799 398.088 94.1862 398.762 95.5878C399.437 96.9925 399.958 98.6021 400.322 100.42C400.685 102.237 400.864 104.285 400.864 106.571ZM389.494 107.584C389.494 105.663 389.416 103.962 389.26 102.483C389.105 101.003 388.845 99.7708 388.482 98.7831C387.705 96.5505 386.041 95.4347 383.497 95.4347C380.798 95.4347 378.487 96.4473 376.565 98.4724V117.864C377.293 118.436 378.176 118.968 379.214 119.46C380.253 119.954 381.291 120.201 382.328 120.201C384.925 120.201 386.768 119.241 387.859 117.319C388.951 115.398 389.494 112.154 389.494 107.584ZM442.463 109.919C442.463 111.22 442.448 112.281 442.422 113.112C442.397 113.943 442.358 114.646 442.307 115.214C442.254 115.786 442.176 116.318 442.073 116.812C441.969 117.307 441.813 117.837 441.605 118.408C441.242 119.5 440.632 120.643 439.775 121.837C438.919 123.031 437.75 124.135 436.271 125.148C434.79 126.16 432.974 126.99 430.819 127.637C428.664 128.288 426.133 128.612 423.223 128.612C419.07 128.612 415.513 128.003 412.554 126.781C409.594 125.56 407.36 123.756 405.856 121.37C405.386 120.693 405.01 120.018 404.727 119.342C404.439 118.668 404.207 117.941 404.024 117.162C403.842 116.383 403.712 115.513 403.634 114.556C403.559 113.593 403.519 112.463 403.519 111.165V83.2927C407.294 82.4959 411.005 81.6293 414.656 80.7087V109.062C414.656 110.724 414.734 112.074 414.89 113.112C415.046 114.151 415.279 114.955 415.591 115.527C416.89 118.021 419.355 119.265 422.992 119.265C425.38 119.265 427.286 118.707 428.714 117.59C430.144 116.474 430.985 114.929 431.247 112.956C431.349 112.386 431.4 111.814 431.4 111.243V75.9155C433.843 75.1277 436.245 74.3125 438.611 73.4683H442.463V109.919ZM470.974 90.3705C470.974 87.8271 470.34 85.8407 469.066 84.4131C467.794 82.985 465.991 82.2711 463.654 82.2711H456.722V98.7846H462.408C463.499 98.7846 464.419 98.7455 465.174 98.6651C465.925 98.5878 466.576 98.4449 467.119 98.2369C467.664 98.0294 468.134 97.7431 468.523 97.38C468.913 97.0163 469.286 96.55 469.65 95.9809C470.119 95.2517 470.455 94.4623 470.664 93.6049C470.872 92.7464 470.974 91.6688 470.974 90.3705Z" fill="white"></path><path d="M214.604 77.6076H187.8V71.0393L196.819 61.9194C198.688 59.9657 200.136 58.3994 201.164 57.2205C202.208 56.0415 202.941 55.0395 203.362 54.2142C203.783 53.3889 203.993 52.53 203.993 51.6374C203.993 50.5427 203.64 49.7511 202.932 49.2627C202.225 48.7743 201.391 48.53 200.431 48.53C199.269 48.53 198.09 48.8669 196.894 49.5406C195.715 50.1974 194.376 51.1742 192.878 52.4711L187.396 46.0543C188.507 45.0606 189.686 44.1175 190.932 43.2248C192.179 42.3154 193.652 41.5743 195.353 41.0017C197.054 40.4291 199.126 40.1428 201.568 40.1428C204.077 40.1428 206.25 40.5807 208.086 41.4564C209.938 42.3322 211.37 43.5364 212.381 45.069C213.391 46.5848 213.896 48.3111 213.896 50.2479C213.896 52.3868 213.501 54.2984 212.709 55.9826C211.934 57.65 210.764 59.3257 209.197 61.0099C207.631 62.6773 205.677 64.572 203.336 66.6941L200.633 69.1193V69.3719H214.604V77.6076Z" fill="white"></path><path d="M245.071 59.191C245.071 62.1552 244.835 64.8078 244.363 67.1488C243.892 69.473 243.134 71.4519 242.09 73.0856C241.062 74.7193 239.698 75.9656 237.997 76.8245C236.296 77.6834 234.208 78.1129 231.732 78.1129C228.65 78.1129 226.124 77.3634 224.153 75.8645C222.183 74.3487 220.726 72.1845 219.783 69.3719C218.856 66.5425 218.393 63.1488 218.393 59.191C218.393 55.1995 218.814 51.789 219.656 48.9595C220.515 46.1132 221.921 43.9322 223.875 42.4164C225.829 40.9006 228.448 40.1428 231.732 40.1428C234.814 40.1428 237.332 40.9006 239.286 42.4164C241.256 43.9154 242.713 46.088 243.656 48.9343C244.599 51.7637 245.071 55.1826 245.071 59.191ZM228.321 59.191C228.321 61.5994 228.406 63.6204 228.574 65.2541C228.759 66.8878 229.096 68.1172 229.585 68.9425C230.09 69.7509 230.806 70.1551 231.732 70.1551C232.658 70.1551 233.366 69.7509 233.854 68.9425C234.342 68.1172 234.679 66.8962 234.865 65.2794C235.05 63.6457 235.142 61.6162 235.142 59.191C235.142 56.7489 235.05 54.711 234.865 53.0774C234.679 51.4437 234.342 50.2142 233.854 49.389C233.366 48.5469 232.658 48.1258 231.732 48.1258C230.806 48.1258 230.09 48.5469 229.585 49.389C229.096 50.2142 228.759 51.4437 228.574 53.0774C228.406 54.711 228.321 56.7489 228.321 59.191Z" fill="white"></path><path d="M275.235 77.6076H248.431V71.0393L257.45 61.9194C259.319 59.9657 260.767 58.3994 261.795 57.2205C262.839 56.0415 263.572 55.0395 263.993 54.2142C264.414 53.3889 264.624 52.53 264.624 51.6374C264.624 50.5427 264.271 49.7511 263.563 49.2627C262.856 48.7743 262.022 48.53 261.062 48.53C259.9 48.53 258.721 48.8669 257.525 49.5406C256.346 50.1974 255.007 51.1742 253.509 52.4711L248.026 46.0543C249.138 45.0606 250.317 44.1175 251.563 43.2248C252.81 42.3154 254.283 41.5743 255.984 41.0017C257.685 40.4291 259.757 40.1428 262.199 40.1428C264.708 40.1428 266.881 40.5807 268.717 41.4564C270.569 42.3322 272.001 43.5364 273.011 45.069C274.022 46.5848 274.527 48.3111 274.527 50.2479C274.527 52.3868 274.131 54.2984 273.34 55.9826C272.565 57.65 271.395 59.3257 269.828 61.0099C268.262 62.6773 266.308 64.572 263.967 66.6941L261.264 69.1193V69.3719H275.235V77.6076Z" fill="white"></path><path d="M306.737 70.4582H302.67V77.6076H292.818V70.4582H278.089V63.132L293.449 40.6733H302.67V63.0057H306.737V70.4582ZM292.818 63.0057V58.711C292.818 58.3236 292.826 57.8352 292.843 57.2457C292.86 56.6563 292.877 56.0668 292.893 55.4773C292.927 54.871 292.952 54.3658 292.969 53.9616C293.003 53.5405 293.028 53.3132 293.045 53.2795H292.767C292.447 54.0374 292.152 54.6689 291.883 55.1742C291.613 55.6626 291.26 56.2437 290.822 56.9173L286.729 63.0057H292.818Z" fill="white"></path></svg>